<svg xmlns="http://www.w3.org/2000/svg">
<path d="M0 0 C0.73710205 0.19286591 1.4742041 0.38573181 2.23364258 0.58444214 C10.14201344 2.67687816 17.76733693 4.91646405 25.125 8.5625 C28.43277261 9.99794849 31.74071294 11.40787262 35.0859375 12.75390625 C36.15070313 13.18574219 37.21546875 13.61757813 38.3125 14.0625 C39.31667969 14.4646875 40.32085938 14.866875 41.35546875 15.28125 C43.95174642 16.48234884 45.88651814 17.80764076 48.125 19.5625 C49.50699638 20.35787459 50.90364592 21.12823035 52.3125 21.875 C56.30185519 24.04982089 60.05341405 26.45169056 63.7890625 29.03515625 C65.65133346 30.25279496 67.57516239 31.37612798 69.515625 32.46484375 C80.57752272 38.72693758 90.02519582 47.78730239 99.125 56.5625 C99.68251953 57.09810547 100.24003906 57.63371094 100.81445312 58.18554688 C108.133437 65.25244175 114.85316522 72.53455148 121.125 80.5625 C122.02868621 81.68851375 122.93369994 82.81346302 123.83984375 83.9375 C129.68703866 91.22711707 135.1072112 98.66853535 140.125 106.5625 C140.78113281 107.57699219 141.43726563 108.59148437 142.11328125 109.63671875 C152.62525327 126.23134643 161.45675592 144.16466581 165.125 163.5625 C165.28742188 164.41924316 165.44984375 165.27598633 165.6171875 166.15869141 C167.99461217 178.7758392 170.15510815 191.13945039 170.73046875 203.97851562 C170.76785156 204.73970703 170.80523438 205.50089844 170.84375 206.28515625 C170.87404297 206.96328369 170.90433594 207.64141113 170.93554688 208.34008789 C171.09856363 210.66591406 171.09856363 210.66591406 171.62988281 213.34228516 C172.19666314 217.0285931 172.30478579 220.64339662 172.328125 224.36328125 C172.33504868 225.10859604 172.34197235 225.85391083 172.34910583 226.62181091 C172.36641095 229.03959408 172.37270394 231.45715764 172.375 233.875 C172.37633942 234.70140991 172.37767883 235.52781982 172.37905884 236.37927246 C172.37405853 250.62910447 171.38103577 264.47888445 169.125 278.5625 C168.89403672 280.13013555 168.66354002 281.69783995 168.43359375 283.265625 C163.31822633 316.46739475 147.48693717 346.88968542 126.125 372.5625 C125.33738281 373.53574219 124.54976562 374.50898437 123.73828125 375.51171875 C113.16585969 388.44342568 101.37732862 400.37872793 88.125 410.5625 C87.10019531 411.38105469 86.07539062 412.19960938 85.01953125 413.04296875 C59.52291703 433.3019213 28.78667633 447.31054939 -2.875 454.5625 C-4.11636719 454.85769531 -5.35773438 455.15289063 -6.63671875 455.45703125 C-22.54884844 459.0742343 -37.92619806 459.97018073 -54.1875 459.9375 C-55.71360397 459.93668427 -55.71360397 459.93668427 -57.27053833 459.93585205 C-73.15622349 459.89683967 -88.33016714 459.08824438 -103.875 455.5625 C-105.30247559 455.25699219 -105.30247559 455.25699219 -106.75878906 454.9453125 C-136.92149108 448.37541976 -166.17618808 435.08994842 -190.875 416.5625 C-191.47602539 416.11551758 -192.07705078 415.66853516 -192.69628906 415.20800781 C-201.60360152 408.53832749 -209.85385684 401.26701909 -217.875 393.5625 C-218.7721875 392.7065625 -219.669375 391.850625 -220.59375 390.96875 C-226.51467761 385.19401813 -231.75202707 379.04760119 -236.875 372.5625 C-237.73593953 371.50306056 -238.59795564 370.44449525 -239.4609375 369.38671875 C-261.02909275 342.7563309 -276.59018746 312.69368639 -285.1875 279.5 C-285.41824219 278.61610596 -285.64898437 277.73221191 -285.88671875 276.8215332 C-290.17732556 259.17168041 -291.42885623 241.54444791 -291.3125 223.4375 C-291.30912628 222.41235291 -291.30575256 221.38720581 -291.30227661 220.33099365 C-290.99224527 155.09507406 -264.39129359 99.89543869 -218.81347656 54.24731445 C-212.22666632 47.75760873 -205.35892769 41.97766274 -197.875 36.5625 C-196.87984375 35.82257813 -195.8846875 35.08265625 -194.859375 34.3203125 C-138.69751106 -6.14503049 -66.44599734 -17.40820757 0 0 Z " fill="#D3D3D3" transform="translate(595.875,310.4375)"/>
<path d="M0 0 C1.12801025 -0.00821777 1.12801025 -0.00821777 2.27880859 -0.01660156 C15.6326264 0.15306359 27.99538249 5.45619504 37.875 14.3125 C38.52855469 14.88484375 39.18210937 15.4571875 39.85546875 16.046875 C51.55126317 26.97228775 61.15746431 41.59004019 62.078125 57.9140625 C62.38873977 73.75934737 58.2568492 87.6982991 47.97265625 100.15234375 C38.77344579 109.62564614 26.30531388 117.30278286 12.8046875 117.515625 C10.78650966 117.53686898 8.76826378 117.55228094 6.75 117.5625 C5.75484375 117.583125 4.7596875 117.60375 3.734375 117.625 C-10.42232755 117.69892534 -22.73367855 112.08154327 -33.12109375 102.453125 C-47.86922548 86.69878546 -54.7683269 71.08782874 -54.40625 49.578125 C-54.14578202 43.71759552 -52.52774094 38.63962959 -50.125 33.3125 C-49.774375 32.52617187 -49.42375 31.73984375 -49.0625 30.9296875 C-42.95259703 18.75231145 -31.71323238 8.47200322 -19.125 3.3125 C-18.43535156 3.0134375 -17.74570312 2.714375 -17.03515625 2.40625 C-11.3848183 0.31997137 -5.95901818 0.03162573 0 0 Z " fill="#A5A5A5" transform="translate(437.125,372.6875)"/>
<path d="M0 0 C1.12801025 -0.00821777 1.12801025 -0.00821777 2.27880859 -0.01660156 C15.48677852 0.15121054 28.20815764 5.3405258 37.875 14.3125 C40.4375 17.25 40.4375 17.25 41.875 19.3125 C39.64589935 18.21112403 37.44007438 17.08049659 35.24609375 15.91015625 C20.40977366 8.14627636 4.97058477 5.44961883 -11.36328125 10.28515625 C-26.37923571 15.87100635 -36.88642143 26.11990614 -44.125 40.3125 C-50.24724118 54.60484003 -49.24676709 68.86252507 -44.12109375 83.14453125 C-43.125 86.3125 -43.125 86.3125 -44.125 88.3125 C-53.96297875 76.01502657 -55.4807533 60.58635903 -54.125 45.3125 C-53.24066671 41.06385526 -51.90682757 37.26299928 -50.125 33.3125 C-49.774375 32.52617187 -49.42375 31.73984375 -49.0625 30.9296875 C-42.95259703 18.75231145 -31.71323238 8.47200322 -19.125 3.3125 C-18.43535156 3.0134375 -17.74570312 2.714375 -17.03515625 2.40625 C-11.3848183 0.31997137 -5.95901818 0.03162573 0 0 Z " fill="#585858" transform="translate(437.125,372.6875)"/>
<path d="M0 0 C2.15340624 3.67345771 2.388481 7.41078169 1.4375 11.5 C-0.36677497 14.53446245 -1.87701788 16.01613006 -4.9375 17.8125 C-9.31146129 18.68906309 -12.09548717 18.349955 -15.875 15.9375 C-19.25748756 12.45251282 -19.33449445 9.77642543 -19.2890625 5.07421875 C-18.9375 2.8125 -18.9375 2.8125 -16.6875 -0.1875 C-11.21032874 -4.17089728 -5.6861058 -3.48503259 0 0 Z " fill="#D9D9D9" transform="translate(688.9375,668.1875)"/>
<path d="M0 0 C0 3 0 3 -1.56958008 4.94189453 C-2.65855591 6.02639893 -2.65855591 6.02639893 -3.76953125 7.1328125 C-4.57052246 7.93468994 -5.37151367 8.73656738 -6.19677734 9.56274414 C-7.05996582 10.40828857 -7.9231543 11.25383301 -8.8125 12.125 C-10.12275146 13.41942017 -10.12275146 13.41942017 -11.45947266 14.73999023 C-17.39041666 20.54927667 -23.3843657 25.97849445 -30 31 C-31.53140625 32.22203125 -31.53140625 32.22203125 -33.09375 33.46875 C-58.58438315 53.73947134 -89.3371551 67.74778173 -121 75 C-122.86205078 75.44279297 -122.86205078 75.44279297 -124.76171875 75.89453125 C-140.07175 79.3748631 -154.69592367 80.30175881 -170.34545898 80.20581055 C-173.4562999 80.18738867 -176.56684417 80.18530271 -179.67773438 80.18554688 C-181.67969005 80.18063563 -183.68164374 80.17480904 -185.68359375 80.16796875 C-186.6014415 80.16685593 -187.51928925 80.1657431 -188.46495056 80.16459656 C-193.72928147 80.12607803 -198.78952528 79.76016895 -204 79 C-204 78.67 -204 78.34 -204 78 C-203.40929214 78.01332367 -202.81858429 78.02664734 -202.2099762 78.04037476 C-173.55210703 78.6563192 -145.90828659 79.15282186 -118 72 C-116.5773584 71.65557861 -116.5773584 71.65557861 -115.12597656 71.30419922 C-80.47948875 62.77986062 -48.41337998 44.69798578 -22 21 C-20.66760164 19.87389282 -19.33441445 18.74871743 -18 17.625 C-11.68515746 12.09951278 -5.89256471 5.96704937 0 0 Z " fill="#FBFBFB" transform="translate(714,690)"/>
<path d="M0 0 C2.18975773 3.28463659 2.99806563 6.20696275 4 10 C0.91910327 7.22719294 -0.68775452 4.93673644 -2 1 C-1.34 0.67 -0.68 0.34 0 0 Z " fill="#6A6A6A" transform="translate(390,451)"/>
</svg>
