<svg id="visual" viewBox="0 0 900 300" width="900" height="300" xmlns="http://www.w3.org/2000/svg" xmlns:xlink="http://www.w3.org/1999/xlink" version="1.1"><path d="M0 34L30 36.5C60 39 120 44 180 42.5C240 41 300 33 360 28C420 23 480 21 540 21C600 21 660 23 720 23.5C780 24 840 23 870 22.5L900 22L900 0L870 0C840 0 780 0 720 0C660 0 600 0 540 0C480 0 420 0 360 0C300 0 240 0 180 0C120 0 60 0 30 0L0 0Z" fill="#2ddad6"></path><path d="M0 58L30 61C60 64 120 70 180 70C240 70 300 64 360 60C420 56 480 54 540 54.5C600 55 660 58 720 58C780 58 840 55 870 53.5L900 52L900 20L870 20.5C840 21 780 22 720 21.5C660 21 600 19 540 19C480 19 420 21 360 26C300 31 240 39 180 40.5C120 42 60 37 30 34.5L0 32Z" fill="#00cfee"></path><path d="M0 79L30 82.5C60 86 120 93 180 93C240 93 300 86 360 83C420 80 480 81 540 82C600 83 660 84 720 84.5C780 85 840 85 870 85L900 85L900 50L870 51.5C840 53 780 56 720 56C660 56 600 53 540 52.5C480 52 420 54 360 58C300 62 240 68 180 68C120 68 60 62 30 59L0 56Z" fill="#00c1ff"></path><path d="M0 109L30 117C60 125 120 141 180 146C240 151 300 145 360 139.5C420 134 480 129 540 127C600 125 660 126 720 125.5C780 125 840 123 870 122L900 121L900 83L870 83C840 83 780 83 720 82.5C660 82 600 81 540 80C480 79 420 78 360 81C300 84 240 91 180 91C120 91 60 84 30 80.5L0 77Z" fill="#4caeff"></path><path d="M0 166L30 170C60 174 120 182 180 191C240 200 300 210 360 213.5C420 217 480 214 540 211.5C600 209 660 207 720 204C780 201 840 197 870 195L900 193L900 119L870 120C840 121 780 123 720 123.5C660 124 600 123 540 125C480 127 420 132 360 137.5C300 143 240 149 180 144C120 139 60 123 30 115L0 107Z" fill="#9197f9"></path><path d="M0 259L30 260C60 261 120 263 180 262.5C240 262 300 259 360 258C420 257 480 258 540 260C600 262 660 265 720 266.5C780 268 840 268 870 268L900 268L900 191L870 193C840 195 780 199 720 202C660 205 600 207 540 209.5C480 212 420 215 360 211.5C300 208 240 198 180 189C120 180 60 172 30 168L0 164Z" fill="#c779dd"></path><path d="M0 280L30 279.5C60 279 120 278 180 276C240 274 300 271 360 270.5C420 270 480 272 540 273.5C600 275 660 276 720 278C780 280 840 283 870 284.5L900 286L900 266L870 266C840 266 780 266 720 264.5C660 263 600 260 540 258C480 256 420 255 360 256C300 257 240 260 180 260.5C120 261 60 259 30 258L0 257Z" fill="#eb57ac"></path><path d="M0 301L30 301C60 301 120 301 180 301C240 301 300 301 360 301C420 301 480 301 540 301C600 301 660 301 720 301C780 301 840 301 870 301L900 301L900 284L870 282.5C840 281 780 278 720 276C660 274 600 273 540 271.5C480 270 420 268 360 268.5C300 269 240 272 180 274C120 276 60 277 30 277.5L0 278Z" fill="#f63e6e"></path></svg>